# xmcd
#
# Track frame offsets:
#	150
#	42467
#	66159
#	95334
#	135614
#	173116
#	209137
#	249416
#	275812
#	339082
#	358798
#
# Disc length: 4790 seconds
#
# Revision: 0
# Processed by: cddbd v1.5.2PL0 Copyright (c) Steve Scherf et al.
# Submitted via: audiograbber 1.83.01
#
DISCID=ad12b40b
DTITLE=Vince Johnson and The Plantation Allstars - Vince Johnson and The Plantation
DTITLE=Allstars
DYEAR=1900
DGENRE=Blues
TTITLE0=Jay's Groove
TTITLE1=Messin' With The Kid
TTITLE2=Green Onions
TTITLE3=Red House
TTITLE4=Mustang Sally
TTITLE5=Big Hip Woman
TTITLE6=Hoochi Coochi Man
TTITLE7=Gone Fishin'
TTITLE8=Ain't No Sunshine
TTITLE9=Boogie Children
TTITLE10=Unknown
EXTD=
EXTT0=
EXTT1=
EXTT2=
EXTT3=
EXTT4=
EXTT5=
EXTT6=
EXTT7=
EXTT8=
EXTT9=
EXTT10=
PLAYORDER=
